HIERARCHY
ROOT Hips
{
    OFFSET 0.000000 0.000000 0.000000
    CHANNELS 6 Xposition Yposition Zposition Zrotation Xrotation Yrotation
    JOINT Spine
    {
        OFFSET -0.000000 7.236184 0.000000
        CHANNELS 3 Zrotation Xrotation Yrotation
        JOINT Spine1
        {
            OFFSET -0.000000 20.420147 0.000000
            CHANNELS 3 Zrotation Xrotation Yrotation
            JOINT Neck
            {
                OFFSET -0.000000 20.336288 1.848754
                CHANNELS 3 Zrotation Xrotation Yrotation
                JOINT Head
                {
                    OFFSET -0.000000 12.354461 -1.764923
                    CHANNELS 3 Zrotation Xrotation Yrotation
                    End Site
                    {
                        OFFSET -0.000000 22.061537 0.000000
                    }
                }
            }
            JOINT LeftShoulder
            {
                OFFSET 3.573296 18.396038 -0.314103
                CHANNELS 3 Zrotation Xrotation Yrotation
                JOINT LeftArm
                {
                    OFFSET 10.880760 0.000000 0.000000
                    CHANNELS 3 Zrotation Xrotation Yrotation
                    JOINT LeftForeArm
                    {
                        OFFSET 27.185530 0.000000 0.000000
                        CHANNELS 3 Zrotation Xrotation Yrotation
                        JOINT LeftHand
                        {
                            OFFSET 27.825975 0.000000 0.000000
                            CHANNELS 3 Zrotation Xrotation Yrotation
                            End Site
                            {
                                OFFSET 13.236923 0.000000 0.000000
                            }
                        }
                    }
                }
            }
            JOINT RightShoulder
            {
                OFFSET -3.474926 18.396038 -0.314103
                CHANNELS 3 Zrotation Xrotation Yrotation
                JOINT RightArm
                {
                    OFFSET -10.880760 0.000000 0.000000
                    CHANNELS 3 Zrotation Xrotation Yrotation
                    JOINT RightForeArm
                    {
                        OFFSET -27.185530 0.000000 0.000000
                        CHANNELS 3 Zrotation Xrotation Yrotation
                        JOINT RightHand
                        {
                            OFFSET -27.825975 0.000000 0.000000
                            CHANNELS 3 Zrotation Xrotation Yrotation
                            End Site
                            {
                                OFFSET -13.236923 0.000000 0.000000
                            }
                        }
                    }
                }
            }
        }
    }
    JOINT LeftUpLeg
    {
        OFFSET 8.824615 0.000000 0.000000
        CHANNELS 3 Zrotation Xrotation Yrotation
        JOINT LeftLeg
        {
            OFFSET -0.000000 -35.111282 0.000000
            CHANNELS 3 Zrotation Xrotation Yrotation
            JOINT LeftFoot
            {
                OFFSET -0.000000 -42.324711 0.000000
                CHANNELS 3 Zrotation Xrotation Yrotation
                JOINT LeftToeBase
                {
                    OFFSET -0.000000 -5.735999 13.236923
                    CHANNELS 3 Zrotation Xrotation Yrotation
                    End Site
                    {
                        OFFSET -0.000000 0.000000 3.529846
                    }
                }
            }
        }
    }
    JOINT RightUpLeg
    {
        OFFSET -8.824615 0.000000 0.000000
        CHANNELS 3 Zrotation Xrotation Yrotation
        JOINT RightLeg
        {
            OFFSET -0.000000 -35.111282 0.000000
            CHANNELS 3 Zrotation Xrotation Yrotation
            JOINT RightFoot
            {
                OFFSET -0.000000 -42.324711 0.000000
                CHANNELS 3 Zrotation Xrotation Yrotation
                JOINT RightToeBase
                {
                    OFFSET -0.000000 -5.735999 13.236923
                    CHANNELS 3 Zrotation Xrotation Yrotation
                    End Site
                    {
                        OFFSET -0.000000 0.000000 3.529846
                    }
                }
            }
        }
    }
}
MOTION
Frames:    11
Frame Time:    0.008333
-23.105316    83.207298    90.160164    -14.832319    17.830032    94.060432    -1.249418    -11.155694    -0.056358    9.133051    11.148235    -0.827555    -0.336730    19.882744    21.084042    -18.675829    12.990058    21.562244    3.649083    19.397181    2.561429    -58.129177    37.163391    -18.752092    44.611996    -19.331696    -77.907768    55.233318    15.843739    -7.138606    1.132074    15.894467    -5.028804    37.835075    30.503334    30.889250    -5.381504    -9.379587    23.365704    -22.516663    -8.061940    -1.102264    -1.521363    -22.485483    -4.651690    -5.259126    24.410334    23.559956    -11.948183    11.483384    -15.983791    -1.587714    -7.132417    1.784201    -19.319704    -30.480524    -1.921341    0.785790    33.235031    11.473754    -8.243212    -10.778581    -18.578707    -1.959763    -0.602289    2.121361    
-23.155680    83.179962    90.155495    -14.881641    17.809021    94.019524    -1.246437    -11.114555    -0.121222    9.247928    11.089304    -0.895082    -0.475313    19.780661    21.187384    -18.685026    12.866419    21.645893    3.784551    19.220438    2.429463    -57.916447    37.204987    -18.404997    44.382359    -18.667324    -77.258797    55.346794    15.666886    -7.415167    0.972276    15.825462    -4.825528    38.020866    30.190456    30.950064    -5.259425    -9.098104    23.213982    -22.759838    -7.834599    -0.975581    -1.409767    -22.648066    -4.239260    -5.081236    24.611225    23.069897    -12.097554    11.513484    -16.003706    -1.575487    -7.205689    1.770730    -19.398518    -30.647881    -2.126851    0.830356    33.339470    11.493182    -8.146467    -10.825862    -18.432583    -2.051816    -0.576657    2.220923    
-23.226177    83.175888    90.152771    -14.957631    17.820625    94.062386    -1.225155    -11.058714    -0.167995    9.310237    11.022252    -0.949754    -0.641433    19.659914    21.256456    -18.679953    12.742524    21.693058    3.926483    19.034634    2.299050    -57.675163    37.200001    -18.064171    44.142750    -18.034466    -76.671135    55.456093    15.507430    -7.679618    0.799978    15.757677    -4.621949    38.230186    29.928303    30.944345    -5.159072    -8.892072    23.123070    -22.976036    -7.666475    -0.897341    -1.262308    -23.006964    -3.850618    -5.016402    25.018391    22.747290    -12.288628    11.754071    -16.173891    -1.534771    -7.249159    1.725122    -19.544878    -30.785383    -2.332288    0.906889    33.379845    11.442612    -8.047019    -10.842900    -18.298246    -2.134041    -0.553207    2.309846    
-23.321224    83.193115    90.152550    -15.063190    17.864323    94.183205    -1.186714    -10.982887    -0.205752    9.325556    10.943843    -0.986979    -0.844082    19.512699    21.297991    -18.660330    12.607965    21.709131    4.087112    18.824181    2.158119    -57.390743    37.149296    -17.700525    43.876404    -17.380487    -76.086983    55.572006    15.350667    -7.949193    0.606368    15.686723    -4.404543    38.460865    29.712206    30.885525    -5.075840    -8.750131    23.078718    -23.178988    -7.548295    -0.863330    -1.062836    -23.573677    -3.470363    -5.059744    25.644396    22.595881    -12.528214    12.220843    -16.506384    -1.464139    -7.257504    1.645761    -19.760576    -30.905312    -2.543033    1.017612    33.362991    11.321159    -7.940193    -10.831062    -18.168192    -2.211396    -0.530605    2.393496    
-23.424477    83.227142    90.155487    -15.178048    17.932095    94.353676    -1.140425    -10.898348    -0.224919    9.294660    10.867985    -1.002698    -1.047806    19.364235    21.307121    -18.629375    12.482852    21.693443    4.241563    18.621477    2.027531    -57.112087    37.061001    -17.369068    43.628124    -16.808151    -75.589470    55.674686    15.218345    -8.178663    0.425879    15.624849    -4.209641    38.660351    29.588379    30.795160    -5.024622    -8.696761    23.082699    -23.335112    -7.500456    -0.879468    -0.838962    -24.241688    -3.160676    -5.200878    26.373102    22.645432    -12.766598    12.830384    -16.938873    -1.378836    -7.218026    1.549753    -20.002718    -30.989843    -2.719053    1.139315    33.295853    11.154560    -7.845160    -10.793194    -18.064762    -2.270623    -0.512798    2.457536    
-23.568777    83.287125    90.163025    -15.336402    18.045502    94.620270    -1.074559    -10.776606    -0.232143    9.210190    10.772656    -1.001501    -1.318389    19.166162    21.289175    -18.575279    12.324949    21.643637    4.441303    18.357420    1.863412    -56.747940    36.910110    -16.955524    43.314072    -16.123165    -75.002579    55.802807    15.064233    -8.440969    0.200593    15.552036    -3.973711    38.879761    29.527822    30.656649    -4.990030    -8.714676    23.131403    -23.494581    -7.507272    -0.950864    -0.511397    -25.216120    -2.809202    -5.476868    27.431713    22.902353    -13.062410    13.771009    -17.598429    -1.257542    -7.099803    1.413082    -20.343822    -31.068542    -2.914663    1.305821    33.162010    10.896542    -7.732262    -10.718592    -17.954676    -2.330770    -0.493823    2.522565    
-23.723042    83.361992    90.174850    -15.501421    18.185778    94.926224    -1.005882    -10.641411    -0.220672    9.081137    10.683367    -0.977820    -1.595372    18.963831    21.242161    -18.504725    12.170142    21.565172    4.641143    18.089901    1.703988    -56.381107    36.721264    -16.553415    43.010719    -15.498807    -74.466965    55.922009    14.923081    -8.665091    -0.014672    15.487058    -3.755754    39.045334    29.584127    30.506384    -4.990042    -8.823924    23.223499    -23.607086    -7.585986    -1.075196    -0.137539    -26.293276    -2.494923    -5.843215    28.603350    23.343601    -13.322675    14.850346    -18.344753    -1.132713    -6.894367    1.272280    -20.707941    -31.116535    -3.074613    1.475109    32.984440    10.604431    -7.631430    -10.619012    -17.870729    -2.373477    -0.478169    2.568728    
-23.888535    83.449623    90.190796    -15.673099    18.353197    95.264671    -0.936885    -10.490978    -0.192480    8.912189    10.599661    -0.935114    -1.883931    18.755161    21.171406    -18.416698    12.013761    21.463049    4.846596    17.810719    1.544164    -56.001919    36.498985    -16.144075    42.710720    -14.911204    -73.951797    56.036484    14.784728    -8.861035    -0.226478    15.426326    -3.548542    39.158108    29.753246    30.352711    -5.020705    -9.011733    23.352999    -23.678879    -7.726028    -1.246218    0.293302    -27.475023    -2.183414    -6.284645    29.897924    23.924101    -13.531416    16.046215    -19.159391    -1.011011    -6.590331    1.134879    -21.096733    -31.141756    -3.208660    1.644398    32.771759    10.287271    -7.539277    -10.497984    -17.807425    -2.402849    -0.464424    2.600466    
-24.072573    83.552490    90.211403    -15.857956    18.556849    95.644508    -0.867453    -10.317886    -0.147492    8.696606    10.518989    -0.872251    -2.199172    18.532507    21.076574    -18.305508    11.848138    21.335831    5.067907    17.503693    1.375679    -55.589169    36.237175    -15.698522    42.400978    -14.329611    -73.420135    56.153595    14.636997    -9.040714    -0.447066    15.365116    -3.341582    39.219337    30.046738    30.196367    -5.082135    -9.279219    23.524607    -23.710192    -7.927638    -1.467373    0.810650    -28.812609    -1.835584    -6.809381    31.381220    24.633835    -13.674538    17.378914    -20.053316    -0.894718    -6.159524    1.003464    -21.528559    -31.149271    -3.327494    1.818067    32.521019    9.940970    -7.451414    -10.352168    -17.761431    -2.421370    -0.451337    2.620462    
-24.268135    83.665871    90.235733    -16.047955    18.792809    96.045578    -0.803916    -10.127924    -0.088307    8.439586    10.446044    -0.790713    -2.529749    18.308102    20.963230    -18.173906    11.679907    21.190754    5.298349    17.177368    1.204491    -55.155766    35.948246    -15.223411    42.097366    -13.778203    -72.881744    56.269283    14.479911    -9.199248    -0.669341    15.303496    -3.142900    39.221073    30.462614    30.050131    -5.173184    -9.611326    23.732986    -23.690487    -8.179027    -1.725802    1.408950    -30.256269    -1.440920    -7.388857    33.011074    25.414606    -13.722243    18.754898    -20.964474    -0.796313    -5.606373    0.892108    -21.989933    -31.142046    -3.431316    1.985728    32.247513    9.589049    -7.371553    -10.188265    -17.734480    -2.429440    -0.439608    2.629153    
-24.467045    83.783867    90.262047    -16.235497    19.054003    96.445641    -0.751888    -9.928902    -0.018852    8.150604    10.382741    -0.695282    -2.862263    18.095438    20.839933    -18.028173    11.516596    21.037926    5.529822    16.843142    1.036474    -54.715992    35.647110    -14.728030    41.815079    -13.275472    -72.346512    56.380783    14.315103    -9.336104    -0.886131    15.241899    -2.959067    39.165058    30.979755    29.924639    -5.288687    -9.982593    23.969250    -23.614365    -8.460447    -2.002294    2.074525    -31.744997    -0.995376    -7.987721    34.731075    26.203447    -13.663752    20.068205    -21.830446    -0.724685    -4.964643    0.810830    -22.466326    -31.126196    -3.525122    2.138788    31.969913    9.255789    -7.301919    -10.015302    -17.724409    -2.428280    -0.429881    2.627861    
